<svg width="587" height="518" viewBox="0 0 587 518" fill="none" xmlns="http://www.w3.org/2000/svg">
<rect width="587" height="517.257" rx="89" fill="#E4DBBC"/>
<path d="M205.643 488.198C202.449 488.198 199.94 487.208 198.114 485.229C197.714 484.795 197.254 484.509 196.736 484.371C193.593 483.535 190.274 485.372 187.283 484.092C186.848 483.905 186.248 483.688 185.796 483.545C184.253 483.058 182.883 482.383 181.688 481.519L169.368 471.871C166.174 469.397 162.752 466.924 159.102 464.45C156.141 462.615 153.572 460.781 151.395 458.946C151.056 458.661 150.761 458.329 150.509 457.965C149.469 456.46 147.723 455.62 145.894 455.619C137.204 455.611 128.146 453.607 118.72 449.608C110.806 446.487 102.75 441.521 94.552 434.711C90.1022 431.014 84.1064 428.561 81.0763 423.633C80.4036 422.357 79.731 421.181 79.0583 420.106C77.0686 416.927 72.9835 415.883 70.3976 413.167C70.2197 412.98 70.0576 412.783 69.9113 412.575C69.5497 412.063 69.3721 411.451 69.2219 410.842C68.836 409.277 68.3264 407.443 67.6931 405.341C67.5133 404.745 66.9214 404.349 66.4258 403.972C66.3713 403.93 66.3168 403.885 66.2623 403.836C66.098 403.69 66.0188 403.289 66.0188 403.069C66.0188 402.815 65.9086 402.758 65.7168 402.592L62.9752 400.214C62.7348 400.005 62.5966 399.702 62.5966 399.384C62.5966 399.225 62.5618 399.068 62.4954 398.923C60.7292 395.084 59.6223 392.436 59.1745 390.98C58.7182 389.496 56.893 387.269 53.699 384.301C52.7864 383.311 52.102 381.827 51.6457 379.848C50.9672 376.17 48.8331 372.898 47.4104 369.439C42.8347 358.313 38.771 347.188 35.2193 336.063C31.1127 323.199 29.0594 309.841 29.0594 295.988C29.0594 291.535 30.2001 288.32 32.4816 286.341C34.763 283.867 37.2726 282.63 40.0103 282.63C43.7417 282.63 46.6606 283.902 48.767 286.448C51.5371 289.795 52.8798 294.138 54.3834 298.215C55.296 300.194 55.9805 302.172 56.4367 304.151L57.1212 310.831C57.5775 314.789 59.4026 320.973 62.5966 329.384C66.247 337.794 70.3536 346.205 74.9164 354.616C77.4704 358.895 79.9652 362.663 82.401 365.918C86.6057 371.536 91.1893 376.932 94.9249 382.873C97.9983 387.761 100.44 393.038 103.196 398.112C104.901 401.251 106.882 404.316 109.138 407.307C113.245 412.254 116.895 415.965 120.089 418.438L142.675 440.702C146.627 444.511 151.976 446.917 157.307 445.611C166.154 443.443 174.737 437.849 183.057 428.828C193.552 418.438 202.677 405.575 210.434 390.238C218.191 374.901 225.035 358.821 230.967 342C236.978 326.171 242.383 311.219 247.182 297.142C247.778 295.394 248.636 293.747 249.733 292.261C250.453 291.285 251.091 290.246 251.514 289.109C252.5 286.457 253.18 283.308 253.554 279.661C254.352 271.872 257.724 264.638 261.019 257.535C261.04 257.489 261.061 257.443 261.082 257.398C262.795 253.683 263.504 249.968 263.207 246.253C263.168 245.77 263.191 245.282 263.3 244.81C263.624 243.404 265.454 241.951 264.475 240.891C264.311 240.713 264.093 240.526 263.82 240.329C261.576 238.707 266.711 236.721 267.787 234.17C269.368 230.421 270.327 226.537 270.664 222.518C271.121 217.076 272.033 213.118 273.402 210.644C274.381 209.229 275.243 207.813 275.989 206.398C276.574 205.288 277.192 204.348 277.623 203.169C278.937 199.576 277.985 195.327 279.121 191.674C279.774 189.577 280.605 186.995 281.615 183.928C283.897 177.001 286.406 169.58 289.144 161.664C292.338 153.253 294.848 146.079 296.673 140.142C297.835 136.867 298.701 134.361 299.271 132.626C299.892 130.735 300.437 128.774 300.437 126.784C300.437 124.794 300.059 122.808 300.206 120.824C300.316 119.347 300.507 117.871 300.779 116.394C301.801 112.333 298.607 108.441 294.436 108.813C287.088 109.468 279.62 110.511 272.033 111.942C261.539 113.426 251.5 115.158 241.918 117.137C240.327 117.45 238.988 117.689 237.901 117.854C235.541 118.211 234.824 116.665 236.443 114.91C237.812 113.426 237.355 112.684 235.074 112.684H233.021C229.826 112.684 226.861 113.426 224.123 114.91C221.232 116.164 220.121 119.605 217.257 120.919C215.583 121.687 213.309 122.406 210.434 123.074C209.331 123.35 208.314 123.6 207.384 123.825C202.615 124.978 197.733 125.691 192.902 126.553C189.696 127.124 186.643 127.696 183.741 128.268C180.02 129.002 176.549 129.6 173.329 130.061C171.155 130.373 169.193 131.288 167.591 129.785C166.519 128.778 165.654 126.843 165.294 125.417C164.816 123.528 164.577 121.51 164.577 119.363C164.577 116.394 165.033 113.673 165.946 111.2C166.837 109.267 167.632 107.753 168.33 106.659C168.933 105.715 169.616 104.52 170.737 104.52H171.422L189.217 102.294C192.867 101.305 197.658 100.81 203.59 100.81C203.872 100.81 204.152 100.808 204.431 100.804C214.991 100.658 225.416 97.5486 235.962 96.9769L247.394 96.3571C252.869 95.8623 259.257 95.615 266.558 95.615C273.858 95.1202 280.018 94.8728 285.037 94.8728C287.319 94.8728 288.231 95.1202 287.775 95.615C287.319 96.1097 288.003 96.3571 289.828 96.3571C292.566 96.3571 294.391 96.1097 295.304 95.615C296.217 95.1202 298.27 94.8728 301.464 94.8728H305.01C306.634 94.8728 308.142 94.03 308.993 92.6465C311.274 88.6885 313.784 85.72 316.521 83.741C319.259 81.762 323.138 81.0199 328.157 81.5146C332.867 81.5146 336.372 83.4757 338.671 87.3977C338.976 87.9174 339.41 88.4146 339.447 89.0158C339.462 89.2668 339.422 89.5479 339.326 89.8592C339.209 90.2382 339.071 90.5775 339.196 90.9539C339.413 91.608 339.818 92.2872 339.979 92.9574C340.104 93.4837 340.294 94.1828 340.548 95.0547C340.902 96.2726 342.023 97.0358 343.199 97.5105C343.645 97.6904 344.151 97.8413 344.631 97.8413C344.86 97.8413 345.072 97.8413 345.268 97.8413C346.166 97.8413 347.486 97.8976 347.548 98.7938C347.56 98.9711 347.484 99.1483 347.321 99.3256C346.575 100.134 347.847 101.144 348.946 101.179C349.446 101.196 349.816 101.072 350.059 100.81C350.971 99.8203 352.112 99.3256 353.481 99.3256C357.282 99.3256 360.903 101.337 364.572 102.332L365.293 102.527C366.542 102.866 367.796 103.257 368.861 103.993C370.927 105.42 371.96 107.328 371.96 109.715C371.96 112.189 370.363 112.931 367.169 111.942L365.78 111.377C363.069 110.274 360.218 109.555 357.309 109.24C355.672 109.062 354.056 108.716 352.424 108.496C351.357 108.352 350.182 108.267 348.899 108.24C348.305 108.228 347.704 108.174 347.117 108.079C342.795 107.383 338.914 110.344 337.628 114.528L336.37 118.621C334.088 126.042 332.263 133.958 330.894 142.369C330.496 146.039 329.403 149.332 327.614 152.249C322.895 159.945 315.733 166.626 312.415 175.022C310.133 181.454 307.852 187.886 305.57 194.317C303.289 200.254 301.692 203.718 300.779 204.707C299.411 206.686 298.042 208.665 296.673 210.644C295.76 212.128 295.076 214.107 294.619 216.581C294.163 221.528 292.566 228.208 289.828 236.618C287.091 244.534 284.125 252.698 280.931 261.108C279.05 266.062 277.327 270.415 275.762 274.167C273.831 278.8 270.97 283.206 266.558 285.598C265.937 286.047 265.738 286.751 265.963 287.709C266.713 290.913 268.406 294.644 265.948 296.831C265.617 297.125 265.286 297.318 264.955 297.41C264.664 297.491 264.36 297.419 264.074 297.322C263.771 297.219 263.449 297.117 263.107 297.014C261.449 296.518 260.149 298.417 260.874 299.989C261.063 300.4 261.318 300.541 261.621 300.877C261.984 301.279 262.301 301.874 262.574 302.664C263.065 304.087 262.854 305.636 262.319 307.043C259.287 315.015 255.681 324.441 251.5 335.321C248.438 344.175 245.122 351.655 241.552 357.758C239.276 361.649 235.525 364.302 231.803 366.845C231.595 366.987 231.394 367.129 231.199 367.271C230.577 367.723 229.959 368.236 229.686 368.954C229.393 369.722 229.327 370.702 229.489 371.893C229.931 375.14 229.427 378.891 228.562 382.052C228.08 383.813 227.742 385.131 226.818 386.706L225.351 389.205C224.086 391.36 222.416 393.241 220.607 394.965C219.726 395.805 218.844 396.703 217.963 397.659C217.233 398.451 216.698 399.453 216.357 400.667C215.701 403.002 215.237 405.432 213.967 407.498C212.558 409.789 210.426 411.506 208.148 412.935C207.27 413.486 206.435 414.084 205.643 414.728C201.537 418.067 201.14 424.445 197.552 428.336C186.955 439.831 175.577 447.803 163.42 452.252C161.078 453.109 160.43 456.254 162.365 457.827C162.91 458.271 163.605 458.51 164.257 458.773C165.28 459.185 166.756 460.088 168.684 461.481C172.665 463.948 175.999 467.539 179.793 470.285C182.7 472.389 185.157 473.907 187.163 474.84C190.814 476.324 194.236 477.066 197.43 477.066C200.46 477.066 204.589 476.555 209.819 475.532C212.052 475.096 214.319 474.84 216.594 474.84C220.468 474.84 221.958 479.413 219.332 482.261C219.246 482.353 219.145 482.455 219.028 482.565C217.533 483.965 216.589 486.714 214.541 486.714C213.172 486.714 211.803 486.961 210.434 487.456C209.065 487.951 207.468 488.198 205.643 488.198ZM130.091 442.243C130.558 442.393 130.847 441.8 130.449 441.512C130.388 441.468 130.339 441.408 130.307 441.34C128.922 438.412 126.201 435.725 122.142 433.281C118.492 430.807 115.07 427.839 111.876 424.375C109.895 422.227 108.001 420.079 106.195 417.93C104.015 415.336 102.187 412.472 100.289 409.664C100.004 409.243 99.7191 408.832 99.4341 408.434C97.3972 405.587 95.7773 403.635 93.6809 400.831C92.1011 398.719 90.0204 395.755 88.6094 393.525C86.8975 390.821 85.0709 388.241 83.1296 385.785C81.6482 384.179 80.6177 382.409 80.0381 380.477C79.7683 379.578 79.7217 378.127 79.5915 377.197C79.2777 374.955 77.6594 373.695 76.2463 371.926C75.1186 370.514 73.9909 369.197 72.8631 367.974C71.038 365.5 69.2128 362.532 67.3877 359.069C65.5625 355.111 63.5092 350.658 61.2278 345.71C58.9463 340.763 55.9805 336.063 52.3301 331.61C49.5659 327.947 44.1637 330.595 45.5836 334.959C51.5476 353.289 59.272 369.984 68.7565 385.043C81.5326 405.328 94.9931 420.417 109.138 430.312C113.194 433.244 117.027 435.934 120.637 438.383C120.728 438.445 120.823 438.5 120.922 438.547C124.117 440.079 127.173 441.311 130.091 442.243Z" fill="#42431B"/>
<path d="M394.619 459.139C391.23 459.139 388.9 458.15 387.629 456.172C386.782 454.688 386.358 452.463 386.358 449.497C386.358 446.042 386.781 442.601 386.954 439.15C386.98 438.628 386.993 438.121 386.993 437.63C386.993 434.168 386.57 430.46 385.722 426.504C385.084 423.524 383.724 420.685 381.644 417.985C380.249 416.177 379.075 414.197 377.818 412.29C377.591 411.945 377.354 411.621 377.105 411.317C374.295 407.878 370.463 403.512 366.022 403.512H365.387C364.539 403.512 363.692 402.523 362.845 400.545C362.037 398.19 360.845 396.957 359.269 396.845C359.119 396.835 358.973 396.902 358.883 397.022C358.859 397.054 358.836 397.085 358.815 397.117C358.495 397.576 356.973 398.602 356.49 398.32C356.09 398.087 355.643 397.964 355.149 397.951C353.958 397.919 352.712 397.97 351.683 397.37C351.349 397.175 351.106 397.033 350.956 396.945C350.834 396.874 350.696 396.837 350.555 396.837C350.292 396.837 350.047 396.706 349.891 396.495C348.497 394.604 346.702 393.339 344.507 392.697C343.614 392.436 342.715 392.188 341.815 391.955C341.766 391.942 341.717 391.93 341.668 391.918C338.133 391.056 334.227 391.825 330.733 390.805C329.272 390.379 327.897 389.708 326.576 388.95C325.565 388.37 324.58 387.882 323.622 387.486C321.46 386.592 318.472 386.301 317.768 388.532C317.753 388.58 317.738 388.629 317.724 388.679C317.301 389.667 316.03 389.667 313.911 388.679C309.236 386.34 303.576 387.937 298.349 387.937C296.758 387.937 295.167 387.937 293.575 387.937C289.762 387.442 285.738 387.442 281.501 387.937L275.781 388.679L270.697 389.42C269.003 389.915 267.308 390.162 265.614 390.162C263.919 390.162 262.224 390.162 260.53 390.162C256.293 390.162 253.751 389.915 252.904 389.42C249.938 387.937 246.76 385.217 243.371 381.262C239.982 376.812 238.287 372.856 238.287 369.395C238.287 366.922 238.499 363.956 238.923 360.495C239.346 357.033 240.829 354.314 243.371 352.336C252.268 343.93 262.012 339.727 272.604 339.727C282.348 339.727 289.551 340.469 294.211 341.952C298.871 343.436 303.108 345.661 306.921 348.628C311.157 351.1 316.877 353.819 324.079 356.786C331.282 359.258 338.484 360.495 345.686 360.495C350.77 360.495 355.854 360.247 360.938 359.753C366.446 358.764 371.53 358.022 376.19 357.528C377.588 357.256 379.05 357.059 380.576 356.936C383.15 356.73 385.733 356.58 388.274 356.128C389.151 355.972 390.006 355.816 390.84 355.66C392.087 355.427 393.351 355.303 394.619 355.303C395.228 355.303 395.788 355.359 396.299 355.473C397.345 355.705 398.166 356.277 399.232 356.384C401.16 356.578 402.742 356.154 404.555 355.474C405.67 355.056 407.172 354.199 408.185 353.574C409.525 352.749 410.51 352.336 411.142 352.336C411.6 352.336 411.995 352.336 412.329 352.336C412.8 352.336 413.298 352.176 413.732 351.991C414.804 351.534 415.827 350.836 416.174 349.724L418.133 343.436C418.98 340.469 419.828 337.502 420.675 334.536C421.522 331.074 421.946 327.613 421.946 324.152C421.946 323.673 422.114 323.2 422.268 322.747C422.585 321.816 422.901 320.06 423.217 317.477C424.064 313.521 424.488 311.543 424.488 311.543L430.843 291.518L431.822 288.851C432.438 287.174 432.845 285.428 433.036 283.652L433.113 282.927C433.293 281.247 433.96 279.221 434.396 277.589C434.756 276.237 434.824 275.256 435.183 273.904C437.225 266.216 439.803 258.737 442.917 251.467C446.73 243.556 449.484 235.397 451.179 226.992L452.124 222.579C452.341 221.568 452.655 220.579 453.062 219.628L454.252 216.851C454.321 216.691 454.356 216.518 454.356 216.343C454.356 216.035 454.471 215.741 454.654 215.494C455.03 214.984 455.213 214.55 455.203 214.191C455.193 213.803 454.992 213.428 454.992 213.04C454.992 212.858 454.992 212.686 454.992 212.524C454.992 211.912 454.459 211.38 454.005 210.969C453.986 210.952 453.968 210.935 453.949 210.917C453.794 210.768 453.721 210.373 453.721 210.158C453.721 209.898 453.833 209.835 454.027 209.662C457.276 206.771 459.928 203.647 461.982 200.291C464.052 196.427 464.504 192.091 463.339 187.283C463.284 187.055 463.253 186.822 463.253 186.589C463.253 186.33 463.289 186.073 463.36 185.824L466.431 175.074L467.006 172.387C467.467 170.236 468.097 167.899 470.007 166.806C470.22 166.685 470.442 166.574 470.673 166.475C471.22 166.239 471.941 165.995 472.428 165.653C474.857 163.948 470.998 161.392 470.384 158.489C470.2 157.616 470.294 156.617 470.667 155.494C471.108 154.164 472.02 152.823 473.421 152.823C475.116 152.823 477.234 152.576 479.776 152.082C481.873 151.674 483.681 150.761 485.201 149.344C485.836 148.752 486.131 147.896 486.131 147.028C486.131 146.45 486.006 145.87 485.688 145.388C484.719 143.92 483.375 143 481.655 142.629C480.425 142.363 479.083 142.442 478.014 141.78C477.003 141.155 476.366 140.165 476.102 138.813C475.905 137.801 476.232 136.777 476.743 135.882C477.068 135.313 477.297 134.694 477.419 134.051L478.505 128.348C479.776 120.931 484.225 115.245 491.85 111.289C499.476 106.839 506.467 104.614 512.822 104.614C516.211 104.614 518.965 105.355 521.083 106.839C523.202 108.322 523.625 110.794 522.354 114.256L513.868 137.561C512.336 141.768 509.825 145.621 508.373 149.856C507.655 151.532 506.785 153.208 505.763 154.884C505.393 155.491 505.135 156.082 504.685 156.633C503.679 157.863 501.503 157.908 500.818 159.341C500.794 159.392 500.77 159.445 500.747 159.498C500.716 159.608 500.688 159.713 500.664 159.815C500.294 161.358 502.454 161.681 502.018 163.207C501.171 166.668 499.476 170.871 496.934 175.815C494.988 179.904 493.22 183.367 491.632 186.204C491.376 186.661 490.945 186.886 490.506 187.171C490.149 187.404 489.692 187.708 489.278 187.609C488.027 187.309 487.402 186.098 487.402 183.974C487.402 182.3 487.111 181.079 486.528 180.312C486.145 179.808 485.448 180.185 485.091 180.708C484.969 180.885 484.86 181.125 484.86 181.34C484.86 181.814 484.86 182.445 484.86 183.232C484.86 184.826 484.998 186.42 485.273 188.014C485.406 188.783 485.671 189.52 485.894 190.268C485.973 190.532 486.041 190.799 486.099 191.071C486.734 194.046 484.86 197.249 484.86 200.291C484.86 200.778 484.792 201.212 484.655 201.592C484.104 203.122 482.092 202.906 481.175 204.248C480.501 205.233 480.13 206.76 479.576 207.816L468.337 229.217L465.795 235.15C464.948 237.128 463.889 239.106 462.618 241.084C461.347 243.061 460.076 245.286 458.805 247.759C458.696 247.971 458.591 248.176 458.492 248.373C457.257 250.82 456.245 253.48 454.992 255.917C454.568 256.906 454.144 258.389 453.721 260.367C453.508 261.36 453.242 262.29 452.923 263.158C452.387 264.615 450.763 265.252 449.272 264.817C447.526 264.308 446.139 265.624 445.737 267.398C445.552 268.214 445.459 269.085 445.459 270.009C445.459 272.456 445.953 274.89 446.432 277.29C446.45 277.381 446.468 277.474 446.486 277.568C446.659 278.459 446.743 279.843 446.649 280.745C446.48 282.362 445.712 283.36 445.231 284.912C444.96 285.789 444.824 286.508 444.824 287.068C444.824 288.057 443.765 290.035 441.646 293.001C438.981 296.111 437.855 300.181 437.093 304.205C436.739 306.076 436.562 307.533 436.562 308.577C436.562 310.06 435.715 313.274 434.02 318.219L431.771 325.043C431.156 326.909 430.843 328.862 430.843 330.827C430.843 332.792 429.6 334.845 428.757 336.619C428.233 337.722 427.657 339.005 427.03 340.469C426.864 340.954 426.697 341.448 426.531 341.952C425.634 344.673 428.38 347.153 431.164 346.477C431.398 346.421 431.588 346.351 431.806 346.251C432.527 345.922 433.169 345.654 433.733 345.447C435.148 344.927 436.668 344.726 438.17 344.602C438.276 344.593 438.381 344.585 438.486 344.579C441.021 344.418 443.572 344.919 446.113 344.919C446.769 344.919 447.398 344.919 448.001 344.919C448.919 344.919 449.726 344.662 450.422 344.146C450.978 343.735 451.448 343.213 452.013 342.815C452.035 342.799 452.057 342.784 452.079 342.769C453.083 342.068 454.351 341.47 455.535 341.784C455.945 341.893 456.324 342.115 456.67 342.45C456.828 342.604 457.219 342.881 457.41 342.993C458.018 343.348 458.169 343.869 458.169 344.573C458.169 344.875 458.169 345.238 458.169 345.661C458.169 346.65 457.745 347.639 456.898 348.628C456.474 349.122 455.627 349.122 454.356 348.628C452.328 347.839 450.078 348.804 447.938 349.203C445.583 349.643 442.85 350.193 439.74 350.853C435.302 351.794 430.865 352.736 426.427 353.678C425.983 353.772 425.449 353.812 424.997 353.851C423.323 353.996 422.307 355.459 421.914 357.093C421.383 359.301 421.022 361.376 420.833 363.319C420.632 365.375 420.387 367.436 419.819 369.423L418.768 373.103C418.345 374.587 417.921 376.317 417.497 378.295C417.212 379.294 416.927 380.181 416.641 380.956C416.383 381.658 416.162 382.376 416.036 383.114L415.677 385.21C415.621 385.539 415.476 385.845 415.26 386.098C415.06 386.331 414.92 386.611 414.863 386.913C414.534 388.662 414.565 389.993 414.955 390.904C415.244 391.577 415.336 392.593 415.232 393.954C415.122 395.387 414.955 396.818 414.955 398.255C414.955 402.672 416.266 406.946 417.96 411.026C419.346 414.365 420.039 417.299 420.039 419.829C420.039 423.785 419.192 427.246 417.497 430.213C415.803 433.18 414.744 437.135 414.32 442.08C413.896 445.541 411.99 449.249 408.6 453.205C405.635 457.161 400.974 459.139 394.619 459.139ZM397.797 416.121C400.927 416.121 401.091 411.022 402.117 408.066C402.789 406.13 403.506 403.773 404.268 400.995C404.62 399.711 404.859 398.397 405 397.074C405.28 394.458 405.944 391.884 406.445 389.302C406.528 388.875 406.611 388.42 406.694 387.937C407.406 385.443 407.969 383.823 408.382 383.076C408.506 382.851 408.6 382.604 408.6 382.348C408.6 382.124 408.671 381.906 408.799 381.722C410.798 378.865 412.003 376.239 412.413 373.845C412.837 370.878 413.049 367.664 413.049 364.203V361.605C413.049 361.36 413.078 361.116 413.137 360.878C413.679 358.664 411.711 356.732 409.558 357.48C408.313 357.913 406.934 358.423 405.423 359.011C401.61 360.495 397.373 361.484 392.713 361.978C385.087 362.967 376.826 364.45 367.929 366.428C359.455 368.406 351.829 369.642 345.051 370.136C344.856 370.136 344.657 370.142 344.453 370.154C341.853 370.301 339.039 371.449 336.789 370.136C334.874 368.646 334.991 364.722 332.566 364.798C332.3 364.806 332.013 364.855 331.705 364.945C330.445 365.435 329.082 365.855 328.171 366.854C328.081 366.953 327.988 367.058 327.892 367.17C327.469 367.664 326.833 367.911 325.986 367.911C324.852 367.911 323.814 368.022 322.87 368.243C321.965 368.455 321.368 368.838 320.473 369.087C318.856 369.536 316.906 369.156 315.294 368.686C314.41 368.428 313.525 368.17 312.64 367.911C312.224 367.79 311.82 367.683 311.43 367.592C309.316 367.096 307.284 367.452 305.182 367.991C303.484 368.426 301.581 368.609 299.843 368.829C298.907 368.948 297.92 369.127 296.881 369.365C296.796 369.385 296.709 369.395 296.622 369.395C296.615 369.395 296.608 369.395 296.601 369.395C295.983 369.395 295.464 368.653 294.846 368.653C292.728 368.653 291.669 369.889 291.669 372.362C291.669 377.768 300.201 375.739 305.551 376.519L312.041 377.466C312.44 377.524 312.843 377.553 313.246 377.553H316.374C316.828 377.553 317.259 377.752 317.554 378.096C317.667 378.228 317.801 378.34 317.951 378.427C318.453 378.72 318.955 379.013 319.457 379.306C319.996 379.62 320.558 379.892 321.14 380.118C322.12 380.499 323.099 380.881 324.079 381.262C327.469 382.745 331.917 383.734 337.425 384.228C343.356 384.723 347.804 385.712 350.77 387.195L354.319 389.078C356.608 390.292 358.983 391.645 361.574 391.645C361.897 391.645 362.282 391.681 362.728 391.753C364.477 392.035 365.946 393.171 366.975 394.612C368.004 396.053 369.552 397.627 371.252 397.132C371.463 397.07 371.626 396.972 371.742 396.837C372.165 396.343 373.013 396.59 374.284 397.579L374.574 397.782C378.557 400.571 381.316 405.164 385.722 407.221C388.172 408.364 391.069 409.067 392.78 411.159C392.902 411.309 393.019 411.462 393.13 411.619C393.805 412.576 394.258 413.688 395.035 414.564C395.955 415.602 396.876 416.121 397.797 416.121Z" fill="#5D0000"/>
</svg>
